{"title":"Room (2015) 1080P WEB-DL DD5 1 H 264","uid":13565247,"size":4301272097,"categoryP":"video","categoryS":"hd___movies","magnet":"?xt=urn:btih:475d4007e33e85c78713b053aa53cfca6c790dcc&amp;dn=Room+%282015%29+1080P+WEB-DL+DD5+1+H+264&amp;tr=udp%3A%2F%2Ftracker.leechers-paradise.org%3A6969&amp;tr=udp%3A%2F%2Fzer0day.ch%3A1337&amp;tr=udp%3A%2F%2Fopen.demonii.com%3A1337&amp;tr=udp%3A%2F%2Ftracker.coppersurfer.tk%3A6969&amp;tr=udp%3A%2F%2Fexodus.desync.com%3A6969","seeders":0,"leechers":1,"uploader":"jmanwf","files":2,"time":1455615084,"description":"Video\r\nID : 1\r\nFormat : AVC\r\nFormat/Info : Advanced Video Codec\r\nFormat profile :   \r\nFormat settings, CABAC : Yes\r\nFormat settings, ReFrames : 5 frames\r\nCodec ID : V_MPEG4/ISO/AVC\r\nDuration : 1h 57mn\r\nBit rate : 4 395 Kbps\r\nWidth : 1 920 pixels\r\nHeight : 796 pixels\r\nDisplay aspect ratio : 2.40:1\r\nFrame rate mode : Constant\r\nFrame rate : 23.976 fps\r\nColor space : YUV\r\nChroma subsampling : 4:2:0\r\nBit depth : 8 bits\r\nScan type : Progressive\r\nBits/(Pixel*Frame) : 0.120\r\nStream size : 3.61 GiB (90%)\r\n\r\nLanguage : English\r\nDefault : Yes\r\nForced : No\r\nColor range : Limited\r\nColor primaries : BT.709\r\nTransfer characteristics : BT.709\r\nMatrix coefficients : BT.709\r\n\r\nAudio\r\nID : 2\r\nFormat : AC-3\r\nFormat/Info : Audio Coding 3\r\nMode extension : CM (complete main)\r\nFormat settings, Endianness : Big\r\nCodec ID : A_AC3\r\nDuration : 1h 57mn\r\nBit rate mode : Constant\r\nBit rate : 384 Kbps\r\nChannel(s) : 6 channels\r\nChannel positions : Front: L C R, Side: L R, LFE\r\nSampling rate : 48.0 KHz\r\nFrame rate : 31.250 fps (1536 spf)\r\nCompression mode : Lossy\r\nStream size : 323 MiB (8%)\r\nLanguage : English\r\nDefault : Yes\r\nForced : No\r\n\r\n \nhttp://s18.postimg.org/jbksy7v2x/image.png\r\n\r\n\r\n\r\n \nhttp://s18.postimg.org/q3b812k2h/image.png","torrent":{"xt":"urn:btih:475d4007e33e85c78713b053aa53cfca6c790dcc","amp;dn":"Room+%282015%29+1080P+WEB-DL+DD5+1+H+264","amp;tr":["udp%3A%2F%2Ftracker.leechers-paradise.org%3A6969","udp%3A%2F%2Fzer0day.ch%3A1337","udp%3A%2F%2Fopen.demonii.com%3A1337","udp%3A%2F%2Ftracker.coppersurfer.tk%3A6969","udp%3A%2F%2Fexodus.desync.com%3A6969"],"infoHash":"475d4007e33e85c78713b053aa53cfca6c790dcc","infoHashBuffer":{"type":"Buffer","data":[71,93,64,7,227,62,133,199,135,19,176,83,170,83,207,202,108,121,13,204]},"announce":[],"urlList":[]}}